Coordinates
version=1
nRows=46
nColumns=24
inDegrees=yes

Units are S.I. units (second, meters, Newtons, ...)
If the header above contains a line with 'inDegrees', this indicates whether rotational values are in degrees (yes) or radians (no).

endheader
time	pelvis_tilt	pelvis_list	pelvis_rotation	pelvis_tx	pelvis_ty	pelvis_tz	hip_flexion_r	hip_adduction_r	hip_rotation_r	knee_angle_r	ankle_angle_r	subtalar_angle_r	mtp_angle_r	hip_flexion_l	hip_adduction_l	hip_rotation_l	knee_angle_l	ankle_angle_l	subtalar_angle_l	mtp_angle_l	lumbar_extension	lumbar_bending	lumbar_rotation
0.300000	8.956988	2.346478	-176.757583	0.220046	0.852178	-1.190271	14.410371	-11.082352	-34.239504	-12.367119	-1.124498	6.175710	0.000000	14.397818	-13.548805	-28.977086	-9.478296	2.025943	22.160438	0.000000	5.902530	1.094035	-1.835858
0.305000	8.975554	2.323635	-176.742515	0.219906	0.852117	-1.190246	14.381112	-11.093109	-34.258941	-12.289372	-1.096075	6.179224	0.000000	14.406457	-13.520228	-28.984642	-9.474301	2.033207	22.172237	0.000000	5.931546	1.065972	-1.811396
0.310000	8.992390	2.295177	-176.732750	0.219736	0.852080	-1.190192	14.353301	-11.110743	-34.266408	-12.220218	-1.076478	6.191557	0.000000	14.413131	-13.487950	-28.990857	-9.475913	2.042729	22.192403	0.000000	5.959195	1.037409	-1.793334
0.315000	9.007122	2.274072	-176.727926	0.219596	0.852069	-1.190174	14.329729	-11.121841	-34.269592	-12.162364	-1.053954	6.209906	0.000000	14.417023	-13.464130	-29.006050	-9.473339	2.048607	22.204846	0.000000	5.980189	1.017059	-1.776319
0.320000	9.023537	2.246182	-176.729404	0.219453	0.852037	-1.190151	14.300765	-11.135959	-34.264931	-12.086553	-1.038283	6.241613	0.000000	14.421024	-13.434509	-29.019706	-9.478461	2.054147	22.217817	0.000000	6.001965	0.985860	-1.747460
0.325000	9.036661	2.204719	-176.722244	0.219331	0.851986	-1.190142	14.265029	-11.163295	-34.254012	-12.007868	-1.035815	6.281300	0.000000	14.436229	-13.396511	-29.035470	-9.516221	2.062139	22.228757	0.000000	6.018975	0.940488	-1.722289
0.330000	9.042199	2.129655	-176.718485	0.219173	0.851935	-1.190097	14.224006	-11.239916	-34.236823	-11.949843	-1.038248	6.369772	0.000000	14.422545	-13.317557	-29.067787	-9.527487	2.105223	22.288397	0.000000	6.031222	0.864873	-1.708411
0.335000	9.026241	2.090533	-176.749984	0.218984	0.851930	-1.190116	14.176410	-11.280160	-34.329872	-11.914894	-0.978182	6.602780	0.000000	14.371167	-13.294867	-29.242584	-9.517959	2.095881	22.435216	0.000000	6.018533	0.833508	-1.631474
0.340000	9.061622	2.088760	-176.759493	0.218850	0.851896	-1.190114	14.177463	-11.274320	-34.371827	-11.855516	-0.939464	6.747686	0.000000	14.408402	-13.302201	-29.283613	-9.541147	2.078608	22.475995	0.000000	6.062460	0.835938	-1.597283
0.345000	9.075848	2.069760	-176.768360	0.218714	0.851867	-1.190117	14.150173	-11.278761	-34.370535	-11.780638	-0.922583	6.768148	0.000000	14.420679	-13.288511	-29.283396	-9.561072	2.085651	22.477412	0.000000	6.075267	0.819993	-1.576936
0.350000	9.093544	2.047308	-176.781367	0.218588	0.851815	-1.190153	14.117198	-11.279626	-34.359981	-11.686105	-0.915225	6.801659	0.000000	14.429032	-13.270670	-29.296021	-9.571681	2.094627	22.472174	0.000000	6.094602	0.801221	-1.547976
0.355000	9.104569	2.024486	-176.790011	0.218477	0.851784	-1.190218	14.079496	-11.282534	-34.340555	-11.602605	-0.931863	6.845151	0.000000	14.440521	-13.256792	-29.309510	-9.599797	2.103511	22.465747	0.000000	6.104491	0.778121	-1.524941
0.360000	9.105157	2.005468	-176.821565	0.218335	0.851762	-1.190255	14.039290	-11.282632	-34.318450	-11.527326	-0.964946	6.932812	0.000000	14.419983	-13.243562	-29.335073	-9.604528	2.129527	22.456194	0.000000	6.103357	0.768770	-1.482704
0.365000	9.122518	1.993206	-176.835992	0.218191	0.851738	-1.190242	14.016990	-11.280883	-34.335763	-11.455551	-0.944008	6.950021	0.000000	14.424211	-13.230941	-29.355137	-9.605120	2.135487	22.446218	0.000000	6.120406	0.765910	-1.449022
0.370000	9.107517	1.969331	-176.866532	0.217999	0.851754	-1.190203	13.979242	-11.323343	-34.486253	-11.448934	-0.867722	7.381694	0.000000	14.379097	-13.206928	-29.399997	-9.592583	2.139070	22.439508	0.000000	6.106476	0.763707	-1.388022
0.375000	9.120597	1.956340	-176.894640	0.217857	0.851730	-1.190198	13.960591	-11.320116	-34.475155	-11.385292	-0.872028	7.416480	0.000000	14.376267	-13.196724	-29.419012	-9.600276	2.162282	22.426588	0.000000	6.120796	0.766874	-1.329243
0.380000	9.134811	1.945434	-176.905405	0.217736	0.851696	-1.190228	13.936817	-11.316542	-34.472539	-11.323899	-0.870412	7.431403	0.000000	14.380386	-13.190674	-29.440923	-9.605339	2.160137	22.410989	0.000000	6.131187	0.758736	-1.295552
0.385000	9.145110	1.924294	-176.912110	0.217624	0.851660	-1.190257	13.907371	-11.321978	-34.452244	-11.254559	-0.875934	7.461510	0.000000	14.386436	-13.173913	-29.453154	-9.623376	2.163066	22.400786	0.000000	6.138008	0.739511	-1.264879
0.390000	9.151404	1.897887	-176.955931	0.217497	0.851643	-1.190280	13.901392	-11.335411	-34.422514	-11.220560	-0.899616	7.529236	0.000000	14.366178	-13.151328	-29.490130	-9.617127	2.174746	22.375194	0.000000	6.139427	0.730085	-1.190107
0.395000	9.164311	1.887124	-176.973112	0.217351	0.851621	-1.190274	13.891646	-11.338239	-34.431358	-11.186977	-0.881894	7.545080	0.000000	14.364739	-13.139729	-29.496562	-9.616956	2.188240	22.369377	0.000000	6.151160	0.729909	-1.160841
0.400000	9.180264	1.881101	-177.018141	0.217250	0.851603	-1.190297	13.908480	-11.338707	-34.400581	-11.180341	-0.859569	7.641640	0.000000	14.363651	-13.141466	-29.525541	-9.623365	2.203117	22.329621	0.000000	6.158326	0.737008	-1.098429
0.405000	9.186868	1.870251	-177.015166	0.217138	0.851593	-1.190348	13.893302	-11.345162	-34.414515	-11.156867	-0.849812	7.653515	0.000000	14.372246	-13.135318	-29.523505	-9.641985	2.203310	22.322252	0.000000	6.160424	0.721172	-1.078154
0.410000	9.191319	1.854781	-177.015450	0.217051	0.851570	-1.190442	13.880101	-11.352373	-34.412290	-11.132118	-0.852667	7.671955	0.000000	14.378215	-13.128376	-29.518273	-9.660118	2.218259	22.321458	0.000000	6.157463	0.698724	-1.056398
0.415000	9.199605	1.837570	-177.016878	0.216965	0.851560	-1.190485	13.878650	-11.370260	-34.409727	-11.128123	-0.850808	7.685890	0.000000	14.388575	-13.115596	-29.517939	-9.682456	2.233245	22.320027	0.000000	6.159574	0.679462	-1.020485
0.420000	9.211168	1.842499	-177.051974	0.216865	0.851594	-1.190493	13.910256	-11.371184	-34.401804	-11.168350	-0.851974	7.712067	0.000000	14.384308	-13.125662	-29.540866	-9.681238	2.235644	22.300291	0.000000	6.169160	0.705225	-0.972910
0.425000	9.150632	1.731635	-177.070491	0.216548	0.851716	-1.190123	13.851636	-11.563036	-34.634721	-11.263316	-0.738778	8.172401	0.000000	14.240701	-12.957180	-29.507314	-9.592509	2.210207	22.113699	0.000000	6.117610	0.649963	-0.923927
0.430000	9.189602	1.789274	-177.117997	0.216584	0.851656	-1.190417	13.919423	-11.476626	-34.593478	-11.284430	-0.690398	8.178661	0.000000	14.301414	-13.057377	-29.522941	-9.642201	2.200992	22.083611	0.000000	6.137790	0.692983	-0.872990
0.435000	9.188665	1.786477	-177.116821	0.216510	0.851669	-1.190476	13.913154	-11.478245	-34.585364	-11.291374	-0.709660	8.170773	0.000000	14.309999	-13.064507	-29.520464	-9.676417	2.205941	22.084102	0.000000	6.126932	0.688004	-0.863299
0.440000	9.190292	1.778400	-177.111085	0.216434	0.851684	-1.190542	13.908673	-11.484583	-34.567321	-11.294452	-0.732578	8.161241	0.000000	14.322055	-13.066859	-29.525856	-9.709557	2.212913	22.082741	0.000000	6.118897	0.676905	-0.856561
0.445000	9.194498	1.778111	-177.104764	0.216346	0.851701	-1.190614	13.908185	-11.483175	-34.563610	-11.297698	-0.732786	8.158070	0.000000	14.324743	-13.067792	-29.526138	-9.710493	2.216685	22.084068	0.000000	6.113897	0.670147	-0.852652
0.450000	9.195434	1.773244	-177.098801	0.216177	0.851754	-1.190474	13.898366	-11.500741	-34.560484	-11.301149	-0.730745	8.155366	0.000000	14.319689	-13.052753	-29.526954	-9.714171	2.217538	22.085418	0.000000	6.120515	0.697036	-0.849211
0.455000	9.176606	1.725362	-177.116702	0.216084	0.851794	-1.190441	13.905299	-11.567169	-34.519782	-11.368970	-0.641753	8.129527	0.000000	14.268979	-12.992880	-29.549549	-9.682360	2.206612	22.075440	0.000000	6.089648	0.661307	-0.800207
0.460000	9.171114	1.719214	-177.119547	0.216008	0.851785	-1.190482	13.905968	-11.578447	-34.517351	-11.402669	-0.656048	8.124729	0.000000	14.263220	-12.991622	-29.547056	-9.699267	2.196887	22.067807	0.000000	6.073600	0.662035	-0.797305
0.465000	9.165071	1.707037	-177.113442	0.215934	0.851762	-1.190509	13.898783	-11.595677	-34.508881	-11.420757	-0.657626	8.117216	0.000000	14.255140	-12.979223	-29.559706	-9.703967	2.193425	22.048660	0.000000	6.059023	0.654019	-0.811142
0.470000	9.167469	1.709169	-177.103657	0.215850	0.851737	-1.190578	13.896892	-11.592003	-34.507074	-11.428845	-0.657415	8.116334	0.000000	14.256725	-12.983397	-29.560040	-9.701798	2.194291	22.047400	0.000000	6.053125	0.644699	-0.808061
0.475000	9.155210	1.720337	-177.096488	0.215763	0.851749	-1.190602	13.894638	-11.590202	-34.493792	-11.475785	-0.636688	8.106749	0.000000	14.249185	-12.999196	-29.561663	-9.713619	2.190525	22.037753	0.000000	6.030957	0.655890	-0.804747
0.480000	9.146509	1.736864	-177.084067	0.215666	0.851773	-1.190671	13.881994	-11.567224	-34.478789	-11.483432	-0.569336	8.101686	0.000000	14.234123	-13.014920	-29.575895	-9.697557	2.179015	22.023840	0.000000	6.014002	0.665239	-0.808361
0.485000	9.147342	1.739910	-177.068249	0.215613	0.851790	-1.190751	13.878092	-11.565960	-34.473390	-11.495556	-0.572660	8.101467	0.000000	14.240370	-13.021837	-29.573367	-9.699200	2.177951	22.023617	0.000000	6.005222	0.655654	-0.805842
0.490000	9.139265	1.719709	-177.009716	0.215570	0.851801	-1.190807	13.854810	-11.594594	-34.481589	-11.507211	-0.569279	8.065463	0.000000	14.261693	-13.001553	-29.530390	-9.742955	2.177264	22.041385	0.000000	5.984380	0.618036	-0.871793
0.495000	9.190647	1.764000	-176.978211	0.215645	0.851727	-1.191030	13.907935	-11.536576	-34.465871	-11.509885	-0.575745	7.996146	0.000000	14.364820	-13.069741	-29.501699	-9.803989	2.174164	22.059112	0.000000	6.023920	0.633244	-0.896919
0.500000	9.161684	1.738416	-176.954141	0.215470	0.851768	-1.190861	13.875587	-11.589453	-34.483299	-11.548711	-0.580977	7.956395	0.000000	14.311518	-13.019317	-29.507653	-9.769002	2.171016	22.063048	0.000000	5.999491	0.630780	-0.902740
0.505000	9.151869	1.747831	-176.930414	0.215383	0.851773	-1.190886	13.857037	-11.581386	-34.489821	-11.558523	-0.533665	7.943572	0.000000	14.307463	-13.029747	-29.503065	-9.776870	2.133026	22.053011	0.000000	5.985238	0.634288	-0.898513
0.510000	9.138785	1.764614	-176.924654	0.215255	0.851786	-1.190883	13.844737	-11.569251	-34.503664	-11.584963	-0.504780	7.936724	0.000000	14.282566	-13.043467	-29.506457	-9.754059	2.126515	22.043623	0.000000	5.972913	0.656929	-0.895861
0.515000	9.127828	1.762591	-176.886341	0.215194	0.851819	-1.190931	13.814332	-11.571160	-34.512683	-11.579035	-0.503329	7.934943	0.000000	14.292056	-13.044723	-29.491261	-9.784861	2.110189	22.042389	0.000000	5.950838	0.642458	-0.911354
0.520000	9.125416	1.760518	-176.822137	0.215199	0.851865	-1.191041	13.780122	-11.566809	-34.518682	-11.546923	-0.518401	7.932300	0.000000	14.327977	-13.045221	-29.452855	-9.823932	2.116822	22.060967	0.000000	5.928976	0.612098	-0.980427
0.525000	9.121674	1.775899	-176.741163	0.215146	0.851887	-1.191130	13.741396	-11.550099	-34.565454	-11.527821	-0.524567	7.888448	0.000000	14.361330	-13.060132	-29.394620	-9.852422	2.126960	22.101059	0.000000	5.916767	0.598882	-1.057112
